<svg width="28" height="29" viewBox="0 0 28 29" fill="none" xmlns="http://www.w3.org/2000/svg">
<path d="M18.0833 16.3523H17.1617L16.835 16.0373C17.9783 14.7073 18.6667 12.9806 18.6667 11.1023C18.6667 6.91392 15.2717 3.51892 11.0833 3.51892C6.895 3.51892 3.5 6.91392 3.5 11.1023C3.5 15.2906 6.895 18.6856 11.0833 18.6856C12.9617 18.6856 14.6883 17.9973 16.0183 16.8539L16.3333 17.1806V18.1023L22.1667 23.9239L23.905 22.1856L18.0833 16.3523ZM11.0833 16.3523C8.17833 16.3523 5.83333 14.0073 5.83333 11.1023C5.83333 8.19725 8.17833 5.85225 11.0833 5.85225C13.9883 5.85225 16.3333 8.19725 16.3333 11.1023C16.3333 14.0073 13.9883 16.3523 11.0833 16.3523Z" fill="black"/>
</svg>
