<svg width="24" height="24" viewBox="0 0 24 24" fill="none" xmlns="http://www.w3.org/2000/svg">
<path d="M21.7099 13.09C21.8037 13.183 21.8781 13.2936 21.9288 13.4154C21.9796 13.5373 22.0057 13.668 22.0057 13.8C22.0057 13.932 21.9796 14.0627 21.9288 14.1846C21.8781 14.3064 21.8037 14.417 21.7099 14.51L16.5199 19.69C16.1903 20.0197 15.8168 20.3024 15.4099 20.53L12.3199 22.25C11.4283 22.7404 10.4275 22.9983 9.40994 23H9.35994C8.56456 22.9993 7.80201 22.6828 7.23994 22.12L5.87994 20.77C5.57683 20.4453 5.34259 20.0627 5.19135 19.645C5.04011 19.2274 4.975 18.7835 4.99994 18.34V14.24C4.99994 12.34 6.36994 11 6.72994 9L7.17994 6.41C7.19083 6.34486 7.21451 6.28253 7.24961 6.22659C7.28472 6.17066 7.33056 6.12223 7.38449 6.08411C7.43842 6.04599 7.49936 6.01893 7.5638 6.0045C7.62824 5.99006 7.69491 5.98853 7.75994 6C8.10361 6.05846 8.41589 6.23557 8.64246 6.50051C8.86902 6.76544 8.99552 7.10143 8.99994 7.45V11.66L16.5299 4.12C16.7182 3.92507 16.9763 3.81292 17.2473 3.80823C17.5183 3.80354 17.78 3.9067 17.9749 4.095C18.1699 4.2833 18.282 4.54133 18.2867 4.81232C18.2914 5.08331 18.1882 5.34507 17.9999 5.54L13.3899 10.14C13.3433 10.1866 13.3063 10.242 13.2811 10.3029C13.2559 10.3638 13.2429 10.4291 13.2429 10.495C13.2429 10.5609 13.2559 10.6262 13.2811 10.6871C13.3063 10.748 13.3433 10.8034 13.3899 10.85C13.4366 10.8966 13.4919 10.9336 13.5528 10.9588C13.6137 10.9841 13.679 10.997 13.7449 10.997C13.8109 10.997 13.8762 10.9841 13.9371 10.9588C13.998 10.9336 14.0533 10.8966 14.0999 10.85L19.4099 5.54C19.5029 5.44627 19.6135 5.37188 19.7354 5.32111C19.8572 5.27034 19.9879 5.2442 20.1199 5.2442C20.252 5.2442 20.3827 5.27034 20.5045 5.32111C20.6264 5.37188 20.737 5.44627 20.8299 5.54C21.0162 5.72736 21.1207 5.98081 21.1207 6.245C21.1207 6.50919 21.0162 6.76264 20.8299 6.95L15.5199 12.26C15.4731 12.3065 15.4359 12.3618 15.4105 12.4227C15.3851 12.4836 15.372 12.549 15.372 12.615C15.372 12.681 15.3851 12.7464 15.4105 12.8073C15.4359 12.8682 15.4731 12.9235 15.5199 12.97C15.6134 13.0616 15.7391 13.1129 15.8699 13.1129C16.0008 13.1129 16.1265 13.0616 16.2199 12.97L20.3399 8.85C20.4329 8.75627 20.5435 8.68188 20.6654 8.63111C20.7872 8.58034 20.9179 8.5542 21.0499 8.5542C21.182 8.5542 21.3127 8.58034 21.4345 8.63111C21.5564 8.68188 21.667 8.75627 21.7599 8.85C21.9462 9.03736 22.0507 9.29081 22.0507 9.555C22.0507 9.81919 21.9462 10.0726 21.7599 10.26L17.6399 14.38C17.5931 14.4265 17.5559 14.4818 17.5305 14.5427C17.5051 14.6036 17.492 14.669 17.492 14.735C17.492 14.801 17.5051 14.8664 17.5305 14.9273C17.5559 14.9882 17.5931 15.0435 17.6399 15.09C17.7334 15.1816 17.8591 15.2329 17.9899 15.2329C18.1208 15.2329 18.2465 15.1816 18.3399 15.09L20.3399 13.09C20.5254 12.9156 20.7704 12.8185 21.0249 12.8185C21.2795 12.8185 21.5245 12.9156 21.7099 13.09ZM4.92994 10.54L5.99994 4.69C6.03011 4.555 6.03011 4.415 5.99994 4.28C5.92775 4.00195 5.77723 3.75047 5.56627 3.55547C5.35532 3.36047 5.09281 3.23015 4.80994 3.18C4.68005 3.15662 4.54617 3.18556 4.43752 3.26049C4.32887 3.33542 4.25425 3.45027 4.22994 3.58L3.72994 6.17C3.36994 8.21 1.99994 9.51 1.99994 11.41V15.51C1.975 15.9535 2.04011 16.3974 2.19135 16.815C2.34259 17.2327 2.57683 17.6153 2.87994 17.94L3.50994 18.56C3.50496 18.4868 3.50496 18.4132 3.50994 18.34V14.24C3.50608 12.8729 4.01243 11.5535 4.92994 10.54ZM11.9999 6C12.5304 6 13.0391 5.78929 13.4142 5.41421C13.7892 5.03914 13.9999 4.53043 13.9999 4C13.6414 2.82575 12.946 1.78261 11.9999 1C11.0458 1.7752 10.3485 2.82105 9.99994 4C9.99994 4.53043 10.2107 5.03914 10.5857 5.41421C10.9608 5.78929 11.4695 6 11.9999 6Z" fill="white"/>
</svg>
